<mxfile host="app.diagrams.net" modified="2023-07-19T11:29:24.523Z" agent="Mozilla/5.0 (Windows NT 10.0; Win64; x64) AppleWebKit/537.36 (KHTML, like Gecko) Chrome/114.0.0.0 Safari/537.36 Avast/114.0.21412.110" version="21.6.3" etag="p5ek9nA3pEM9dBdFJ0oW" type="github">
  <diagram name="Страница 1" id="Dh-m_dgb8JymyOb4RKs2">
    <mxGraphModel>
      <root>
        <mxCell id="0" />
        <mxCell id="1" parent="0" />
      </root>
    </mxGraphModel>
  </diagram>
</mxfile>
